<svg width="36" height="36" viewBox="0 0 36 36" fill="none" xmlns="http://www.w3.org/2000/svg">
<path d="M18 36C27.9411 36 36 27.9411 36 18C36 8.05888 27.9411 0 18 0C8.05888 0 0 8.05888 0 18C0 27.9411 8.05888 36 18 36Z" fill="#17B7FF"/>
<mask id="mask0_2697_152908" style="mask-type:alpha" maskUnits="userSpaceOnUse" x="0" y="0" width="36" height="36">
<path d="M18 36C27.9411 36 36 27.9411 36 18C36 8.05888 27.9411 0 18 0C8.05888 0 0 8.05888 0 18C0 27.9411 8.05888 36 18 36Z" fill="#17B7FF"/>
</mask>
<g mask="url(#mask0_2697_152908)">
<mask id="mask1_2697_152908" style="mask-type:alpha" maskUnits="userSpaceOnUse" x="9" y="6" width="17" height="76">
<path d="M20.444 6.77222C22.9724 7.6953 24.9534 9.90418 25.4544 12.7458C25.9749 15.6977 24.7611 18.5542 22.545 20.2699L22.5449 67.8864C24.4385 69.3088 25.6634 71.5735 25.6634 74.1243C25.6634 78.4302 22.1732 81.9207 17.8677 81.9207C13.5623 81.9207 10.0721 78.4302 10.0721 74.1243C10.0721 71.5739 11.2966 69.3094 13.1897 67.887L13.19 20.4035C11.615 19.2574 10.4649 17.5233 10.1 15.4535C9.5989 12.6115 10.7053 9.85797 12.766 8.12574L13.9386 14.7766L21.6158 13.4227L20.444 6.77222ZM20.1542 70.0732H15.4768L13.1381 74.1243L15.4768 78.1754H20.1542L22.4929 74.1243L20.1542 70.0732Z" fill="white"/>
</mask>
<g mask="url(#mask1_2697_152908)">
<path d="M20.444 6.77222C22.9724 7.6953 24.9534 9.90418 25.4544 12.7458C25.9749 15.6977 24.7611 18.5542 22.545 20.2699L22.5449 67.8864C24.4385 69.3088 25.6634 71.5735 25.6634 74.1243C25.6634 78.4302 22.1732 81.9207 17.8677 81.9207C13.5623 81.9207 10.0721 78.4302 10.0721 74.1243C10.0721 71.5739 11.2966 69.3094 13.1897 67.887L13.19 20.4035C11.615 19.2574 10.4649 17.5233 10.1 15.4535C9.5989 12.6115 10.7053 9.85797 12.766 8.12574L13.9386 14.7766L21.6158 13.4227L20.444 6.77222ZM20.1542 70.0732H15.4768L13.1381 74.1243L15.4768 78.1754H20.1542L22.4929 74.1243L20.1542 70.0732Z" fill="white"/>
<path opacity="0.5" fill-rule="evenodd" clip-rule="evenodd" d="M17.8216 7.29407C21.5749 7.29407 24.6176 10.3315 24.6176 14.0783C24.6176 16.0021 23.8155 17.7389 22.5269 18.9735V69.1975C23.8155 70.4322 24.6176 72.169 24.6176 74.0928C24.6176 77.8396 21.5749 80.877 17.8216 80.877C14.0682 80.877 11.0255 77.8396 11.0255 74.0928C11.0255 70.3994 13.9819 67.3954 17.6611 67.3104L17.8216 67.3085V20.8626C14.0682 20.8626 11.0255 17.8251 11.0255 14.0783C11.0255 10.3315 14.0682 7.29407 17.8216 7.29407Z" fill="#9B9B9B"/>
</g>
<mask id="mask2_2697_152908" style="mask-type:alpha" maskUnits="userSpaceOnUse" x="15" y="23" width="6" height="41">
<path d="M20.2062 25.7861C20.2062 24.4945 19.1591 23.4474 17.8675 23.4474C16.5759 23.4474 15.5288 24.4945 15.5288 25.7861V61.6502C15.5288 62.9418 16.5759 63.9889 17.8675 63.9889C19.1591 63.9889 20.2062 62.9418 20.2062 61.6502V25.7861Z" fill="white"/>
</mask>
<g mask="url(#mask2_2697_152908)">
<path d="M20.2064 25.7861C20.2064 24.4945 19.1593 23.4474 17.8677 23.4474C16.5761 23.4474 15.529 24.4945 15.529 25.7861V61.6502C15.529 62.9418 16.5761 63.9889 17.8677 63.9889C19.1593 63.9889 20.2064 62.9418 20.2064 61.6502V25.7861Z" fill="#686868"/>
<path d="M20.9306 26.3323C20.9306 25.0407 19.8835 23.9937 18.5919 23.9937C17.3002 23.9937 16.2532 25.0407 16.2532 26.3323V62.1964C16.2532 63.4881 17.3002 64.5351 18.5919 64.5351C19.8835 64.5351 20.9306 63.4881 20.9306 62.1964V26.3323Z" fill="#9B9B9B"/>
</g>
</g>
</svg>
